<svg xmlns="http://www.w3.org/2000/svg" xmlns:xlink="http://www.w3.org/1999/xlink" version="1.1" x="0" y="0" viewBox="0 0 220 220" width="220" height="220">
<rect x="0" y="0" width="220" fill="none" height="220" stroke="none"></rect>
<g transform="translate(10, 10)">
<g shape-rendering="crispEdges" fill="#ffffff">
<rect x="64.00359999999999" y="0.01" width="7.999199999999999" height="7.999199999999999" rx="0"></rect>
<rect x="103.9996" y="0.01" width="7.999199999999999" height="7.999199999999999" rx="0"></rect>
<rect x="111.99879999999999" y="0.01" width="7.999199999999999" height="7.999199999999999" rx="0"></rect>
<rect x="119.99799999999999" y="0.01" width="7.999199999999999" height="7.999199999999999" rx="0"></rect>
<rect x="72.0028" y="8.0092" width="7.999199999999999" height="7.999199999999999" rx="0"></rect>
<rect x="103.9996" y="8.0092" width="7.999199999999999" height="7.999199999999999" rx="0"></rect>
<rect x="111.99879999999999" y="8.0092" width="7.999199999999999" height="7.999199999999999" rx="0"></rect>
<rect x="119.99799999999999" y="8.0092" width="7.999199999999999" height="7.999199999999999" rx="0"></rect>
<rect x="127.99719999999999" y="8.0092" width="7.999199999999999" height="7.999199999999999" rx="0"></rect>
<rect x="64.00359999999999" y="16.008399999999998" width="7.999199999999999" height="7.999199999999999" rx="0"></rect>
<rect x="72.0028" y="16.008399999999998" width="7.999199999999999" height="7.999199999999999" rx="0"></rect>
<rect x="80.002" y="16.008399999999998" width="7.999199999999999" height="7.999199999999999" rx="0"></rect>
<rect x="88.0012" y="16.008399999999998" width="7.999199999999999" height="7.999199999999999" rx="0"></rect>
<rect x="111.99879999999999" y="16.008399999999998" width="7.999199999999999" height="7.999199999999999" rx="0"></rect>
<rect x="119.99799999999999" y="16.008399999999998" width="7.999199999999999" height="7.999199999999999" rx="0"></rect>
<rect x="64.00359999999999" y="24.0076" width="7.999199999999999" height="7.999199999999999" rx="0"></rect>
<rect x="80.002" y="24.0076" width="7.999199999999999" height="7.999199999999999" rx="0"></rect>
<rect x="96.0004" y="24.0076" width="7.999199999999999" height="7.999199999999999" rx="0"></rect>
<rect x="111.99879999999999" y="24.0076" width="7.999199999999999" height="7.999199999999999" rx="0"></rect>
<rect x="80.002" y="32.0068" width="7.999199999999999" height="7.999199999999999" rx="0"></rect>
<rect x="96.0004" y="32.0068" width="7.999199999999999" height="7.999199999999999" rx="0"></rect>
<rect x="111.99879999999999" y="32.0068" width="7.999199999999999" height="7.999199999999999" rx="0"></rect>
<rect x="119.99799999999999" y="32.0068" width="7.999199999999999" height="7.999199999999999" rx="0"></rect>
<rect x="64.00359999999999" y="40.00599999999999" width="7.999199999999999" height="7.999199999999999" rx="0"></rect>
<rect x="88.0012" y="40.00599999999999" width="7.999199999999999" height="7.999199999999999" rx="0"></rect>
<rect x="96.0004" y="40.00599999999999" width="7.999199999999999" height="7.999199999999999" rx="0"></rect>
<rect x="119.99799999999999" y="40.00599999999999" width="7.999199999999999" height="7.999199999999999" rx="0"></rect>
<rect x="127.99719999999999" y="40.00599999999999" width="7.999199999999999" height="7.999199999999999" rx="0"></rect>
<rect x="64.00359999999999" y="48.005199999999995" width="7.999199999999999" height="7.999199999999999" rx="0"></rect>
<rect x="80.002" y="48.005199999999995" width="7.999199999999999" height="7.999199999999999" rx="0"></rect>
<rect x="96.0004" y="48.005199999999995" width="7.999199999999999" height="7.999199999999999" rx="0"></rect>
<rect x="111.99879999999999" y="48.005199999999995" width="7.999199999999999" height="7.999199999999999" rx="0"></rect>
<rect x="127.99719999999999" y="48.005199999999995" width="7.999199999999999" height="7.999199999999999" rx="0"></rect>
<rect x="64.00359999999999" y="56.00439999999999" width="7.999199999999999" height="7.999199999999999" rx="0"></rect>
<rect x="80.002" y="56.00439999999999" width="7.999199999999999" height="7.999199999999999" rx="0"></rect>
<rect x="88.0012" y="56.00439999999999" width="7.999199999999999" height="7.999199999999999" rx="0"></rect>
<rect x="119.99799999999999" y="56.00439999999999" width="7.999199999999999" height="7.999199999999999" rx="0"></rect>
<rect x="127.99719999999999" y="56.00439999999999" width="7.999199999999999" height="7.999199999999999" rx="0"></rect>
<rect x="8.0092" y="64.00359999999999" width="7.999199999999999" height="7.999199999999999" rx="0"></rect>
<rect x="24.0076" y="64.00359999999999" width="7.999199999999999" height="7.999199999999999" rx="0"></rect>
<rect x="40.00599999999999" y="64.00359999999999" width="7.999199999999999" height="7.999199999999999" rx="0"></rect>
<rect x="48.005199999999995" y="64.00359999999999" width="7.999199999999999" height="7.999199999999999" rx="0"></rect>
<rect x="56.00439999999999" y="64.00359999999999" width="7.999199999999999" height="7.999199999999999" rx="0"></rect>
<rect x="64.00359999999999" y="64.00359999999999" width="7.999199999999999" height="7.999199999999999" rx="0"></rect>
<rect x="80.002" y="64.00359999999999" width="7.999199999999999" height="7.999199999999999" rx="0"></rect>
<rect x="88.0012" y="64.00359999999999" width="7.999199999999999" height="7.999199999999999" rx="0"></rect>
<rect x="103.9996" y="64.00359999999999" width="7.999199999999999" height="7.999199999999999" rx="0"></rect>
<rect x="111.99879999999999" y="64.00359999999999" width="7.999199999999999" height="7.999199999999999" rx="0"></rect>
<rect x="119.99799999999999" y="64.00359999999999" width="7.999199999999999" height="7.999199999999999" rx="0"></rect>
<rect x="135.99639999999997" y="64.00359999999999" width="7.999199999999999" height="7.999199999999999" rx="0"></rect>
<rect x="143.99559999999997" y="64.00359999999999" width="7.999199999999999" height="7.999199999999999" rx="0"></rect>
<rect x="151.99479999999997" y="64.00359999999999" width="7.999199999999999" height="7.999199999999999" rx="0"></rect>
<rect x="167.99319999999997" y="64.00359999999999" width="7.999199999999999" height="7.999199999999999" rx="0"></rect>
<rect x="175.99239999999998" y="64.00359999999999" width="7.999199999999999" height="7.999199999999999" rx="0"></rect>
<rect x="191.99079999999998" y="64.00359999999999" width="7.999199999999999" height="7.999199999999999" rx="0"></rect>
<rect x="16.008399999999998" y="72.0028" width="7.999199999999999" height="7.999199999999999" rx="0"></rect>
<rect x="32.0068" y="72.0028" width="7.999199999999999" height="7.999199999999999" rx="0"></rect>
<rect x="40.00599999999999" y="72.0028" width="7.999199999999999" height="7.999199999999999" rx="0"></rect>
<rect x="64.00359999999999" y="72.0028" width="7.999199999999999" height="7.999199999999999" rx="0"></rect>
<rect x="72.0028" y="72.0028" width="7.999199999999999" height="7.999199999999999" rx="0"></rect>
<rect x="103.9996" y="72.0028" width="7.999199999999999" height="7.999199999999999" rx="0"></rect>
<rect x="127.99719999999999" y="72.0028" width="7.999199999999999" height="7.999199999999999" rx="0"></rect>
<rect x="135.99639999999997" y="72.0028" width="7.999199999999999" height="7.999199999999999" rx="0"></rect>
<rect x="143.99559999999997" y="72.0028" width="7.999199999999999" height="7.999199999999999" rx="0"></rect>
<rect x="191.99079999999998" y="72.0028" width="7.999199999999999" height="7.999199999999999" rx="0"></rect>
<rect x="8.0092" y="80.002" width="7.999199999999999" height="7.999199999999999" rx="0"></rect>
<rect x="16.008399999999998" y="80.002" width="7.999199999999999" height="7.999199999999999" rx="0"></rect>
<rect x="32.0068" y="80.002" width="7.999199999999999" height="7.999199999999999" rx="0"></rect>
<rect x="48.005199999999995" y="80.002" width="7.999199999999999" height="7.999199999999999" rx="0"></rect>
<rect x="56.00439999999999" y="80.002" width="7.999199999999999" height="7.999199999999999" rx="0"></rect>
<rect x="64.00359999999999" y="80.002" width="7.999199999999999" height="7.999199999999999" rx="0"></rect>
<rect x="80.002" y="80.002" width="7.999199999999999" height="7.999199999999999" rx="0"></rect>
<rect x="88.0012" y="80.002" width="7.999199999999999" height="7.999199999999999" rx="0"></rect>
<rect x="103.9996" y="80.002" width="7.999199999999999" height="7.999199999999999" rx="0"></rect>
<rect x="127.99719999999999" y="80.002" width="7.999199999999999" height="7.999199999999999" rx="0"></rect>
<rect x="135.99639999999997" y="80.002" width="7.999199999999999" height="7.999199999999999" rx="0"></rect>
<rect x="151.99479999999997" y="80.002" width="7.999199999999999" height="7.999199999999999" rx="0"></rect>
<rect x="159.99399999999997" y="80.002" width="7.999199999999999" height="7.999199999999999" rx="0"></rect>
<rect x="183.99159999999998" y="80.002" width="7.999199999999999" height="7.999199999999999" rx="0"></rect>
<rect x="191.99079999999998" y="80.002" width="7.999199999999999" height="7.999199999999999" rx="0"></rect>
<rect x="0.01" y="88.0012" width="7.999199999999999" height="7.999199999999999" rx="0"></rect>
<rect x="16.008399999999998" y="88.0012" width="7.999199999999999" height="7.999199999999999" rx="0"></rect>
<rect x="40.00599999999999" y="88.0012" width="7.999199999999999" height="7.999199999999999" rx="0"></rect>
<rect x="80.002" y="88.0012" width="7.999199999999999" height="7.999199999999999" rx="0"></rect>
<rect x="88.0012" y="88.0012" width="7.999199999999999" height="7.999199999999999" rx="0"></rect>
<rect x="96.0004" y="88.0012" width="7.999199999999999" height="7.999199999999999" rx="0"></rect>
<rect x="103.9996" y="88.0012" width="7.999199999999999" height="7.999199999999999" rx="0"></rect>
<rect x="119.99799999999999" y="88.0012" width="7.999199999999999" height="7.999199999999999" rx="0"></rect>
<rect x="135.99639999999997" y="88.0012" width="7.999199999999999" height="7.999199999999999" rx="0"></rect>
<rect x="143.99559999999997" y="88.0012" width="7.999199999999999" height="7.999199999999999" rx="0"></rect>
<rect x="159.99399999999997" y="88.0012" width="7.999199999999999" height="7.999199999999999" rx="0"></rect>
<rect x="0.01" y="96.0004" width="7.999199999999999" height="7.999199999999999" rx="0"></rect>
<rect x="8.0092" y="96.0004" width="7.999199999999999" height="7.999199999999999" rx="0"></rect>
<rect x="24.0076" y="96.0004" width="7.999199999999999" height="7.999199999999999" rx="0"></rect>
<rect x="40.00599999999999" y="96.0004" width="7.999199999999999" height="7.999199999999999" rx="0"></rect>
<rect x="48.005199999999995" y="96.0004" width="7.999199999999999" height="7.999199999999999" rx="0"></rect>
<rect x="56.00439999999999" y="96.0004" width="7.999199999999999" height="7.999199999999999" rx="0"></rect>
<rect x="64.00359999999999" y="96.0004" width="7.999199999999999" height="7.999199999999999" rx="0"></rect>
<rect x="88.0012" y="96.0004" width="7.999199999999999" height="7.999199999999999" rx="0"></rect>
<rect x="96.0004" y="96.0004" width="7.999199999999999" height="7.999199999999999" rx="0"></rect>
<rect x="111.99879999999999" y="96.0004" width="7.999199999999999" height="7.999199999999999" rx="0"></rect>
<rect x="127.99719999999999" y="96.0004" width="7.999199999999999" height="7.999199999999999" rx="0"></rect>
<rect x="135.99639999999997" y="96.0004" width="7.999199999999999" height="7.999199999999999" rx="0"></rect>
<rect x="143.99559999999997" y="96.0004" width="7.999199999999999" height="7.999199999999999" rx="0"></rect>
<rect x="151.99479999999997" y="96.0004" width="7.999199999999999" height="7.999199999999999" rx="0"></rect>
<rect x="167.99319999999997" y="96.0004" width="7.999199999999999" height="7.999199999999999" rx="0"></rect>
<rect x="183.99159999999998" y="96.0004" width="7.999199999999999" height="7.999199999999999" rx="0"></rect>
<rect x="191.99079999999998" y="96.0004" width="7.999199999999999" height="7.999199999999999" rx="0"></rect>
<rect x="8.0092" y="103.9996" width="7.999199999999999" height="7.999199999999999" rx="0"></rect>
<rect x="32.0068" y="103.9996" width="7.999199999999999" height="7.999199999999999" rx="0"></rect>
<rect x="64.00359999999999" y="103.9996" width="7.999199999999999" height="7.999199999999999" rx="0"></rect>
<rect x="72.0028" y="103.9996" width="7.999199999999999" height="7.999199999999999" rx="0"></rect>
<rect x="80.002" y="103.9996" width="7.999199999999999" height="7.999199999999999" rx="0"></rect>
<rect x="96.0004" y="103.9996" width="7.999199999999999" height="7.999199999999999" rx="0"></rect>
<rect x="103.9996" y="103.9996" width="7.999199999999999" height="7.999199999999999" rx="0"></rect>
<rect x="143.99559999999997" y="103.9996" width="7.999199999999999" height="7.999199999999999" rx="0"></rect>
<rect x="151.99479999999997" y="103.9996" width="7.999199999999999" height="7.999199999999999" rx="0"></rect>
<rect x="167.99319999999997" y="103.9996" width="7.999199999999999" height="7.999199999999999" rx="0"></rect>
<rect x="175.99239999999998" y="103.9996" width="7.999199999999999" height="7.999199999999999" rx="0"></rect>
<rect x="191.99079999999998" y="103.9996" width="7.999199999999999" height="7.999199999999999" rx="0"></rect>
<rect x="0.01" y="111.99879999999999" width="7.999199999999999" height="7.999199999999999" rx="0"></rect>
<rect x="16.008399999999998" y="111.99879999999999" width="7.999199999999999" height="7.999199999999999" rx="0"></rect>
<rect x="32.0068" y="111.99879999999999" width="7.999199999999999" height="7.999199999999999" rx="0"></rect>
<rect x="40.00599999999999" y="111.99879999999999" width="7.999199999999999" height="7.999199999999999" rx="0"></rect>
<rect x="48.005199999999995" y="111.99879999999999" width="7.999199999999999" height="7.999199999999999" rx="0"></rect>
<rect x="56.00439999999999" y="111.99879999999999" width="7.999199999999999" height="7.999199999999999" rx="0"></rect>
<rect x="103.9996" y="111.99879999999999" width="7.999199999999999" height="7.999199999999999" rx="0"></rect>
<rect x="111.99879999999999" y="111.99879999999999" width="7.999199999999999" height="7.999199999999999" rx="0"></rect>
<rect x="127.99719999999999" y="111.99879999999999" width="7.999199999999999" height="7.999199999999999" rx="0"></rect>
<rect x="143.99559999999997" y="111.99879999999999" width="7.999199999999999" height="7.999199999999999" rx="0"></rect>
<rect x="151.99479999999997" y="111.99879999999999" width="7.999199999999999" height="7.999199999999999" rx="0"></rect>
<rect x="159.99399999999997" y="111.99879999999999" width="7.999199999999999" height="7.999199999999999" rx="0"></rect>
<rect x="175.99239999999998" y="111.99879999999999" width="7.999199999999999" height="7.999199999999999" rx="0"></rect>
<rect x="191.99079999999998" y="111.99879999999999" width="7.999199999999999" height="7.999199999999999" rx="0"></rect>
<rect x="8.0092" y="119.99799999999999" width="7.999199999999999" height="7.999199999999999" rx="0"></rect>
<rect x="16.008399999999998" y="119.99799999999999" width="7.999199999999999" height="7.999199999999999" rx="0"></rect>
<rect x="24.0076" y="119.99799999999999" width="7.999199999999999" height="7.999199999999999" rx="0"></rect>
<rect x="56.00439999999999" y="119.99799999999999" width="7.999199999999999" height="7.999199999999999" rx="0"></rect>
<rect x="64.00359999999999" y="119.99799999999999" width="7.999199999999999" height="7.999199999999999" rx="0"></rect>
<rect x="80.002" y="119.99799999999999" width="7.999199999999999" height="7.999199999999999" rx="0"></rect>
<rect x="88.0012" y="119.99799999999999" width="7.999199999999999" height="7.999199999999999" rx="0"></rect>
<rect x="96.0004" y="119.99799999999999" width="7.999199999999999" height="7.999199999999999" rx="0"></rect>
<rect x="103.9996" y="119.99799999999999" width="7.999199999999999" height="7.999199999999999" rx="0"></rect>
<rect x="111.99879999999999" y="119.99799999999999" width="7.999199999999999" height="7.999199999999999" rx="0"></rect>
<rect x="119.99799999999999" y="119.99799999999999" width="7.999199999999999" height="7.999199999999999" rx="0"></rect>
<rect x="159.99399999999997" y="119.99799999999999" width="7.999199999999999" height="7.999199999999999" rx="0"></rect>
<rect x="183.99159999999998" y="119.99799999999999" width="7.999199999999999" height="7.999199999999999" rx="0"></rect>
<rect x="0.01" y="127.99719999999999" width="7.999199999999999" height="7.999199999999999" rx="0"></rect>
<rect x="8.0092" y="127.99719999999999" width="7.999199999999999" height="7.999199999999999" rx="0"></rect>
<rect x="16.008399999999998" y="127.99719999999999" width="7.999199999999999" height="7.999199999999999" rx="0"></rect>
<rect x="40.00599999999999" y="127.99719999999999" width="7.999199999999999" height="7.999199999999999" rx="0"></rect>
<rect x="48.005199999999995" y="127.99719999999999" width="7.999199999999999" height="7.999199999999999" rx="0"></rect>
<rect x="56.00439999999999" y="127.99719999999999" width="7.999199999999999" height="7.999199999999999" rx="0"></rect>
<rect x="72.0028" y="127.99719999999999" width="7.999199999999999" height="7.999199999999999" rx="0"></rect>
<rect x="80.002" y="127.99719999999999" width="7.999199999999999" height="7.999199999999999" rx="0"></rect>
<rect x="88.0012" y="127.99719999999999" width="7.999199999999999" height="7.999199999999999" rx="0"></rect>
<rect x="96.0004" y="127.99719999999999" width="7.999199999999999" height="7.999199999999999" rx="0"></rect>
<rect x="103.9996" y="127.99719999999999" width="7.999199999999999" height="7.999199999999999" rx="0"></rect>
<rect x="127.99719999999999" y="127.99719999999999" width="7.999199999999999" height="7.999199999999999" rx="0"></rect>
<rect x="135.99639999999997" y="127.99719999999999" width="7.999199999999999" height="7.999199999999999" rx="0"></rect>
<rect x="143.99559999999997" y="127.99719999999999" width="7.999199999999999" height="7.999199999999999" rx="0"></rect>
<rect x="151.99479999999997" y="127.99719999999999" width="7.999199999999999" height="7.999199999999999" rx="0"></rect>
<rect x="159.99399999999997" y="127.99719999999999" width="7.999199999999999" height="7.999199999999999" rx="0"></rect>
<rect x="167.99319999999997" y="127.99719999999999" width="7.999199999999999" height="7.999199999999999" rx="0"></rect>
<rect x="175.99239999999998" y="127.99719999999999" width="7.999199999999999" height="7.999199999999999" rx="0"></rect>
<rect x="64.00359999999999" y="135.99639999999997" width="7.999199999999999" height="7.999199999999999" rx="0"></rect>
<rect x="96.0004" y="135.99639999999997" width="7.999199999999999" height="7.999199999999999" rx="0"></rect>
<rect x="103.9996" y="135.99639999999997" width="7.999199999999999" height="7.999199999999999" rx="0"></rect>
<rect x="111.99879999999999" y="135.99639999999997" width="7.999199999999999" height="7.999199999999999" rx="0"></rect>
<rect x="127.99719999999999" y="135.99639999999997" width="7.999199999999999" height="7.999199999999999" rx="0"></rect>
<rect x="159.99399999999997" y="135.99639999999997" width="7.999199999999999" height="7.999199999999999" rx="0"></rect>
<rect x="167.99319999999997" y="135.99639999999997" width="7.999199999999999" height="7.999199999999999" rx="0"></rect>
<rect x="191.99079999999998" y="135.99639999999997" width="7.999199999999999" height="7.999199999999999" rx="0"></rect>
<rect x="64.00359999999999" y="143.99559999999997" width="7.999199999999999" height="7.999199999999999" rx="0"></rect>
<rect x="80.002" y="143.99559999999997" width="7.999199999999999" height="7.999199999999999" rx="0"></rect>
<rect x="103.9996" y="143.99559999999997" width="7.999199999999999" height="7.999199999999999" rx="0"></rect>
<rect x="111.99879999999999" y="143.99559999999997" width="7.999199999999999" height="7.999199999999999" rx="0"></rect>
<rect x="119.99799999999999" y="143.99559999999997" width="7.999199999999999" height="7.999199999999999" rx="0"></rect>
<rect x="127.99719999999999" y="143.99559999999997" width="7.999199999999999" height="7.999199999999999" rx="0"></rect>
<rect x="143.99559999999997" y="143.99559999999997" width="7.999199999999999" height="7.999199999999999" rx="0"></rect>
<rect x="159.99399999999997" y="143.99559999999997" width="7.999199999999999" height="7.999199999999999" rx="0"></rect>
<rect x="167.99319999999997" y="143.99559999999997" width="7.999199999999999" height="7.999199999999999" rx="0"></rect>
<rect x="183.99159999999998" y="143.99559999999997" width="7.999199999999999" height="7.999199999999999" rx="0"></rect>
<rect x="191.99079999999998" y="143.99559999999997" width="7.999199999999999" height="7.999199999999999" rx="0"></rect>
<rect x="64.00359999999999" y="151.99479999999997" width="7.999199999999999" height="7.999199999999999" rx="0"></rect>
<rect x="80.002" y="151.99479999999997" width="7.999199999999999" height="7.999199999999999" rx="0"></rect>
<rect x="127.99719999999999" y="151.99479999999997" width="7.999199999999999" height="7.999199999999999" rx="0"></rect>
<rect x="159.99399999999997" y="151.99479999999997" width="7.999199999999999" height="7.999199999999999" rx="0"></rect>
<rect x="167.99319999999997" y="151.99479999999997" width="7.999199999999999" height="7.999199999999999" rx="0"></rect>
<rect x="175.99239999999998" y="151.99479999999997" width="7.999199999999999" height="7.999199999999999" rx="0"></rect>
<rect x="183.99159999999998" y="151.99479999999997" width="7.999199999999999" height="7.999199999999999" rx="0"></rect>
<rect x="72.0028" y="159.99399999999997" width="7.999199999999999" height="7.999199999999999" rx="0"></rect>
<rect x="80.002" y="159.99399999999997" width="7.999199999999999" height="7.999199999999999" rx="0"></rect>
<rect x="96.0004" y="159.99399999999997" width="7.999199999999999" height="7.999199999999999" rx="0"></rect>
<rect x="111.99879999999999" y="159.99399999999997" width="7.999199999999999" height="7.999199999999999" rx="0"></rect>
<rect x="127.99719999999999" y="159.99399999999997" width="7.999199999999999" height="7.999199999999999" rx="0"></rect>
<rect x="135.99639999999997" y="159.99399999999997" width="7.999199999999999" height="7.999199999999999" rx="0"></rect>
<rect x="143.99559999999997" y="159.99399999999997" width="7.999199999999999" height="7.999199999999999" rx="0"></rect>
<rect x="151.99479999999997" y="159.99399999999997" width="7.999199999999999" height="7.999199999999999" rx="0"></rect>
<rect x="159.99399999999997" y="159.99399999999997" width="7.999199999999999" height="7.999199999999999" rx="0"></rect>
<rect x="167.99319999999997" y="159.99399999999997" width="7.999199999999999" height="7.999199999999999" rx="0"></rect>
<rect x="191.99079999999998" y="159.99399999999997" width="7.999199999999999" height="7.999199999999999" rx="0"></rect>
<rect x="64.00359999999999" y="167.99319999999997" width="7.999199999999999" height="7.999199999999999" rx="0"></rect>
<rect x="72.0028" y="167.99319999999997" width="7.999199999999999" height="7.999199999999999" rx="0"></rect>
<rect x="80.002" y="167.99319999999997" width="7.999199999999999" height="7.999199999999999" rx="0"></rect>
<rect x="88.0012" y="167.99319999999997" width="7.999199999999999" height="7.999199999999999" rx="0"></rect>
<rect x="96.0004" y="167.99319999999997" width="7.999199999999999" height="7.999199999999999" rx="0"></rect>
<rect x="103.9996" y="167.99319999999997" width="7.999199999999999" height="7.999199999999999" rx="0"></rect>
<rect x="111.99879999999999" y="167.99319999999997" width="7.999199999999999" height="7.999199999999999" rx="0"></rect>
<rect x="119.99799999999999" y="167.99319999999997" width="7.999199999999999" height="7.999199999999999" rx="0"></rect>
<rect x="151.99479999999997" y="167.99319999999997" width="7.999199999999999" height="7.999199999999999" rx="0"></rect>
<rect x="159.99399999999997" y="167.99319999999997" width="7.999199999999999" height="7.999199999999999" rx="0"></rect>
<rect x="167.99319999999997" y="167.99319999999997" width="7.999199999999999" height="7.999199999999999" rx="0"></rect>
<rect x="175.99239999999998" y="167.99319999999997" width="7.999199999999999" height="7.999199999999999" rx="0"></rect>
<rect x="72.0028" y="175.99239999999998" width="7.999199999999999" height="7.999199999999999" rx="0"></rect>
<rect x="80.002" y="175.99239999999998" width="7.999199999999999" height="7.999199999999999" rx="0"></rect>
<rect x="111.99879999999999" y="175.99239999999998" width="7.999199999999999" height="7.999199999999999" rx="0"></rect>
<rect x="127.99719999999999" y="175.99239999999998" width="7.999199999999999" height="7.999199999999999" rx="0"></rect>
<rect x="151.99479999999997" y="175.99239999999998" width="7.999199999999999" height="7.999199999999999" rx="0"></rect>
<rect x="159.99399999999997" y="175.99239999999998" width="7.999199999999999" height="7.999199999999999" rx="0"></rect>
<rect x="175.99239999999998" y="175.99239999999998" width="7.999199999999999" height="7.999199999999999" rx="0"></rect>
<rect x="191.99079999999998" y="175.99239999999998" width="7.999199999999999" height="7.999199999999999" rx="0"></rect>
<rect x="64.00359999999999" y="183.99159999999998" width="7.999199999999999" height="7.999199999999999" rx="0"></rect>
<rect x="72.0028" y="183.99159999999998" width="7.999199999999999" height="7.999199999999999" rx="0"></rect>
<rect x="103.9996" y="183.99159999999998" width="7.999199999999999" height="7.999199999999999" rx="0"></rect>
<rect x="119.99799999999999" y="183.99159999999998" width="7.999199999999999" height="7.999199999999999" rx="0"></rect>
<rect x="127.99719999999999" y="183.99159999999998" width="7.999199999999999" height="7.999199999999999" rx="0"></rect>
<rect x="167.99319999999997" y="183.99159999999998" width="7.999199999999999" height="7.999199999999999" rx="0"></rect>
<rect x="80.002" y="191.99079999999998" width="7.999199999999999" height="7.999199999999999" rx="0"></rect>
<rect x="88.0012" y="191.99079999999998" width="7.999199999999999" height="7.999199999999999" rx="0"></rect>
<rect x="111.99879999999999" y="191.99079999999998" width="7.999199999999999" height="7.999199999999999" rx="0"></rect>
<rect x="119.99799999999999" y="191.99079999999998" width="7.999199999999999" height="7.999199999999999" rx="0"></rect>
<rect x="127.99719999999999" y="191.99079999999998" width="7.999199999999999" height="7.999199999999999" rx="0"></rect>
<rect x="135.99639999999997" y="191.99079999999998" width="7.999199999999999" height="7.999199999999999" rx="0"></rect>
<rect x="151.99479999999997" y="191.99079999999998" width="7.999199999999999" height="7.999199999999999" rx="0"></rect>
<rect x="183.99159999999998" y="191.99079999999998" width="7.999199999999999" height="7.999199999999999" rx="0"></rect>
<rect x="191.99079999999998" y="191.99079999999998" width="7.999199999999999" height="7.999199999999999" rx="0"></rect>
</g>
<g>
<rect x="3.9995999999999996" y="3.9995999999999996" width="47.9952" fill="none" height="47.9952" stroke-width="7.999199999999999" stroke="#ffffff"></rect>
<rect x="15.998399999999998" y="15.998399999999998" width="23.9976" fill="#ffffff" height="23.9976"></rect>
<rect x="148.0052" y="3.9995999999999996" width="47.9952" fill="none" height="47.9952" stroke-width="7.999199999999999" stroke="#ffffff"></rect>
<rect x="160.00400000000002" y="15.998399999999998" width="23.9976" fill="#ffffff" height="23.9976"></rect>
<rect x="3.9995999999999996" y="148.0052" width="47.9952" fill="none" height="47.9952" stroke-width="7.999199999999999" stroke="#ffffff"></rect>
<rect x="15.998399999999998" y="160.00400000000002" width="23.9976" fill="#ffffff" height="23.9976"></rect>
</g>
</g>
</svg>